<?xml version="1.0" encoding="utf-8"?>
<!-- Generator: Adobe Illustrator 18.0.0, SVG Export Plug-In . SVG Version: 6.00 Build 0)  -->
<!DOCTYPE svg PUBLIC "-//W3C//DTD SVG 1.1//EN" "http://www.w3.org/Graphics/SVG/1.1/DTD/svg11.dtd">
<svg version="1.1" id="Capa_1" xmlns="http://www.w3.org/2000/svg" xmlns:xlink="http://www.w3.org/1999/xlink" x="0px" y="0px"
	 viewBox="0 0 540.8 500" enable-background="new 0 0 540.8 500" xml:space="preserve">
<g>
	<path d="M282,245V62.6c0-6.2-5-11.2-11.2-11.2c-6.2,0-11.2,5-11.2,11.2V245c-25.9,5.2-45.5,28.1-45.5,55.6
		c0,27.5,19.6,50.4,45.5,55.6v81.2c0,6.2,5,11.2,11.2,11.2c6.2,0,11.2-5,11.2-11.2v-81.2c25.9-5.2,45.5-28.1,45.5-55.6
		C327.4,273.2,307.9,250.2,282,245L282,245z M270.8,334.9c-18.9,0-34.3-15.4-34.3-34.3c0-18.9,15.4-34.3,34.3-34.3
		c18.9,0,34.3,15.4,34.3,34.3C305.1,319.5,289.7,334.9,270.8,334.9L270.8,334.9z M270.8,334.9"/>
	<path d="M145.3,151.4V62.6c0-6.2-5-11.2-11.2-11.2c-6.2,0-11.2,5-11.2,11.2v88.8c-25.9,5.2-45.5,28.1-45.5,55.6
		c0,27.4,19.6,50.3,45.5,55.6v174.8c0,6.2,5,11.2,11.2,11.2c6.2,0,11.2-5,11.2-11.2V262.4c25.9-5.2,45.5-28.1,45.5-55.6
		C190.8,179.4,171.2,156.6,145.3,151.4L145.3,151.4z M134.1,241.3c-18.9,0-34.3-15.4-34.3-34.3c0-18.9,15.4-34.3,34.3-34.3
		c18.9,0,34.3,15.4,34.3,34.3C168.4,225.9,153,241.3,134.1,241.3L134.1,241.3z M134.1,241.3"/>
	<path d="M417.8,151.4V62.6c0-6.2-5-11.2-11.2-11.2s-11.2,5-11.2,11.2v88.8c-25.9,5.2-45.5,28.1-45.5,55.6
		c0,27.4,19.6,50.3,45.5,55.6v174.9c0,6.2,5,11.2,11.2,11.2s11.2-5,11.2-11.2V262.4c25.9-5.2,45.5-28.1,45.5-55.6
		C463.3,179.4,443.8,156.6,417.8,151.4L417.8,151.4z M406.6,241.3c-18.9,0-34.3-15.4-34.3-34.3c0-18.9,15.4-34.3,34.3-34.3
		c18.9,0,34.3,15.4,34.3,34.3C440.9,225.9,425.6,241.3,406.6,241.3L406.6,241.3z M406.6,241.3"/>
</g>
</svg>
