<?xml version="1.0" encoding="utf-8"?>
<!-- Generator: Adobe Illustrator 18.0.0, SVG Export Plug-In . SVG Version: 6.00 Build 0)  -->
<!DOCTYPE svg PUBLIC "-//W3C//DTD SVG 1.1//EN" "http://www.w3.org/Graphics/SVG/1.1/DTD/svg11.dtd">
<svg version="1.1" id="Capa_1" xmlns="http://www.w3.org/2000/svg" xmlns:xlink="http://www.w3.org/1999/xlink" x="0px" y="0px"
	 viewBox="0 0 540.8 500" enable-background="new 0 0 540.8 500" xml:space="preserve">
<g>
	<g>
		<g>
			<path d="M275.3,460.4h-9.9c-116,0-210.4-94.4-210.4-210.4c0-116,94.4-210.4,210.4-210.4h9.9c116,0,210.4,94.4,210.4,210.4
				S391.3,460.4,275.3,460.4z M265.4,64c-102.6,0-186,83.4-186,186s83.4,186,186,186h9.9c102.6,0,186-83.4,186-186
				c0-102.6-83.4-186-186-186H265.4z"/>
		</g>
	</g>
	<path d="M270.4,352.1c-6.7,0-12.2-5.5-12.2-12.2V159.3c0-6.7,5.5-12.2,12.2-12.2c6.7,0,12.2,5.5,12.2,12.2v180.6
		C282.6,346.6,277.1,352.1,270.4,352.1z"/>
	<path d="M270.4,352.1c-6.7,0-12.2-5.5-12.2-12.2V159.3c0-6.7,5.5-12.2,12.2-12.2c6.7,0,12.2,5.5,12.2,12.2v180.6
		C282.6,346.6,277.1,352.1,270.4,352.1z"/>
	<path d="M360.7,261.8H180.1c-6.7,0-12.2-5.5-12.2-12.2c0-6.7,5.5-12.2,12.2-12.2h180.6c6.7,0,12.2,5.5,12.2,12.2
		C372.9,256.3,367.4,261.8,360.7,261.8z"/>
</g>
</svg>
