<?xml version="1.0" encoding="utf-8"?>
<!-- Generator: Adobe Illustrator 18.0.0, SVG Export Plug-In . SVG Version: 6.00 Build 0)  -->
<!DOCTYPE svg PUBLIC "-//W3C//DTD SVG 1.1//EN" "http://www.w3.org/Graphics/SVG/1.1/DTD/svg11.dtd">
<svg version="1.1" id="Capa_1" xmlns="http://www.w3.org/2000/svg" xmlns:xlink="http://www.w3.org/1999/xlink" x="0px" y="0px"
	 viewBox="0 0 500 500" enable-background="new 0 0 500 500" xml:space="preserve">
<g>
	<path d="M409.5,461.2H94.2c-26.6,0-48.3-21.7-48.3-48.3V148.3c0-26.6,21.7-48.3,48.3-48.3h315.3c26.6,0,48.3,21.7,48.3,48.3v264.7
		C457.8,439.6,436.1,461.2,409.5,461.2z M94.2,124.9c-12.9,0-23.3,10.5-23.3,23.3v264.7c0,12.9,10.5,23.3,23.3,23.3h315.3
		c12.9,0,23.3-10.5,23.3-23.3V148.3c0-12.9-10.5-23.3-23.3-23.3H94.2z"/>
	<g>
		<circle cx="129.9" cy="247.8" r="19.8"/>
		<circle cx="190.9" cy="247.8" r="19.8"/>
		<circle cx="251.8" cy="247.8" r="19.8"/>
		<circle cx="312.8" cy="247.8" r="19.8"/>
		<circle cx="373.8" cy="247.8" r="19.8"/>
		<circle cx="129.9" cy="309.7" r="19.8"/>
		<circle cx="190.9" cy="309.7" r="19.8"/>
		<circle cx="251.8" cy="309.7" r="19.8"/>
		<circle cx="312.8" cy="309.7" r="19.8"/>
		<circle cx="373.8" cy="309.7" r="19.8"/>
		<circle cx="129.9" cy="371.6" r="19.8"/>
		<circle cx="190.9" cy="371.6" r="19.8"/>
		<circle cx="251.8" cy="371.6" r="19.8"/>
		<circle cx="312.8" cy="371.6" r="19.8"/>
		<circle cx="373.8" cy="371.6" r="19.8"/>
	</g>
	<g>
		<path d="M173.2,164.5c-6.9,0-12.5-5.6-12.5-12.5V53.3c0-6.9,5.6-12.5,12.5-12.5s12.5,5.6,12.5,12.5V152
			C185.7,158.9,180.1,164.5,173.2,164.5z"/>
		<path d="M330.5,164.5c-6.9,0-12.5-5.6-12.5-12.5V53.3c0-6.9,5.6-12.5,12.5-12.5S343,46.4,343,53.3V152
			C343,158.9,337.4,164.5,330.5,164.5z"/>
	</g>
</g>
</svg>
