<?xml version="1.0" encoding="utf-8"?>
<!-- Generator: Adobe Illustrator 18.0.0, SVG Export Plug-In . SVG Version: 6.00 Build 0)  -->
<!DOCTYPE svg PUBLIC "-//W3C//DTD SVG 1.1//EN" "http://www.w3.org/Graphics/SVG/1.1/DTD/svg11.dtd">
<svg version="1.1" id="Capa_1" xmlns="http://www.w3.org/2000/svg" xmlns:xlink="http://www.w3.org/1999/xlink" x="0px" y="0px"
	 viewBox="0 0 540.8 500" enable-background="new 0 0 540.8 500" xml:space="preserve">
<g>
	<path d="M378.4,385c-6.5,0-11.8-5.3-11.8-11.8V152H131.4c-6.5,0-11.8-5.3-11.8-11.8c0-6.5,5.3-11.8,11.8-11.8h247
		c6.5,0,11.8,5.3,11.8,11.8v233C390.2,379.7,384.9,385,378.4,385z"/>
	<path d="M517,386h-33.8c-6.5,0-11.8-5.3-11.8-11.8c0-6.5,5.3-11.8,11.8-11.8h22v-75l-60.2-72h-66.5c-6.5,0-11.8-5.3-11.8-11.8
		s5.3-11.8,11.8-11.8h72c3.5,0,6.8,1.5,9.1,4.2l66.5,79.6c1.8,2.1,2.7,4.8,2.7,7.6v91.1C528.8,380.7,523.5,386,517,386z"/>
	<path d="M200.5,417c-24.2,0-43.8-19.6-43.8-43.8s19.6-43.8,43.8-43.8c24.1,0,43.8,19.6,43.8,43.8S224.6,417,200.5,417z M200.5,353
		c-11.1,0-20.2,9.1-20.2,20.2c0,11.1,9.1,20.2,20.2,20.2c11.1,0,20.2-9.1,20.2-20.2C220.7,362,211.6,353,200.5,353z"/>
	<path d="M447.7,417c-24.2,0-43.8-19.6-43.8-43.8s19.6-43.8,43.8-43.8s43.8,19.6,43.8,43.8S471.8,417,447.7,417z M447.7,353
		c-11.1,0-20.2,9.1-20.2,20.2c0,11.1,9.1,20.2,20.2,20.2c11.1,0,20.2-9.1,20.2-20.2C467.9,362,458.8,353,447.7,353z"/>
	<path d="M415.7,385H232.5c-6.5,0-11.8-5.3-11.8-11.8c0-6.5,5.3-11.8,11.8-11.8h183.2c6.5,0,11.8,5.3,11.8,11.8
		C427.5,379.7,422.2,385,415.7,385z"/>
	<path d="M168.5,385h-37.1c-6.5,0-11.8-5.3-11.8-11.8c0-6.5,5.3-11.8,11.8-11.8h37.1c6.5,0,11.8,5.3,11.8,11.8
		C180.3,379.7,175,385,168.5,385z"/>
	<path d="M254.9,203.6H93.7c-6.5,0-11.8-5.3-11.8-11.8c0-6.5,5.3-11.8,11.8-11.8h161.2c6.5,0,11.8,5.3,11.8,11.8
		C266.7,198.3,261.4,203.6,254.9,203.6z"/>
	<path d="M195.1,268.8H67.5c-6.5,0-11.8-5.3-11.8-11.8c0-6.5,5.3-11.8,11.8-11.8h127.7c6.5,0,11.8,5.3,11.8,11.8
		C206.9,263.5,201.6,268.8,195.1,268.8z"/>
	<path d="M30,268.8H17.3c-6.5,0-11.8-5.3-11.8-11.8c0-6.5,5.3-11.8,11.8-11.8H30c6.5,0,11.8,5.3,11.8,11.8
		C41.8,263.5,36.6,268.8,30,268.8z"/>
	<path d="M136.2,336.4H38.3c-6.5,0-11.8-5.3-11.8-11.8c0-6.5,5.3-11.8,11.8-11.8h97.9c6.5,0,11.8,5.3,11.8,11.8
		C148,331.1,142.7,336.4,136.2,336.4z"/>
</g>
</svg>
