<?xml version="1.0" encoding="utf-8"?>
<!-- Generator: Adobe Illustrator 18.0.0, SVG Export Plug-In . SVG Version: 6.00 Build 0)  -->
<!DOCTYPE svg PUBLIC "-//W3C//DTD SVG 1.1//EN" "http://www.w3.org/Graphics/SVG/1.1/DTD/svg11.dtd">
<svg version="1.1" id="Capa_1" xmlns="http://www.w3.org/2000/svg" xmlns:xlink="http://www.w3.org/1999/xlink" x="0px" y="0px"
	 viewBox="0 0 540.8 500" enable-background="new 0 0 540.8 500" xml:space="preserve">
<g>
	<g>
		<g>
			<path d="M267,463.6c-56.3,0-109.2-21.8-148.8-61.4c-82-82-82-215.5,0-297.5l7-7c39.6-39.6,92.4-61.4,148.8-61.4
				s109.2,21.8,148.8,61.4c39.6,39.6,61.4,92.4,61.4,148.8s-21.8,109.2-61.4,148.8l-7,7C376.1,441.8,323.3,463.6,267,463.6z
				 M274,60.7c-49.8,0-96.6,19.3-131.5,54.2l-7,7c-72.5,72.5-72.5,190.5,0,263.1c35,35,81.7,54.2,131.5,54.2S363.5,420,398.5,385
				l7-7c72.5-72.5,72.5-190.5,0-263.1C370.5,80,323.8,60.7,274,60.7z"/>
		</g>
	</g>
	<path d="M334,325.7c-3.1,0-6.2-1.2-8.6-3.6L197.7,194.5c-4.8-4.8-4.8-12.5,0-17.2c4.8-4.8,12.5-4.8,17.2,0L342.6,305
		c4.8,4.8,4.8,12.5,0,17.2C340.3,324.6,337.1,325.7,334,325.7z"/>
	<path d="M334,325.7c-3.1,0-6.2-1.2-8.6-3.6L197.7,194.5c-4.8-4.8-4.8-12.5,0-17.2c4.8-4.8,12.5-4.8,17.2,0L342.6,305
		c4.8,4.8,4.8,12.5,0,17.2C340.3,324.6,337.1,325.7,334,325.7z"/>
	<path d="M206.3,325.7c-3.1,0-6.2-1.2-8.6-3.6c-4.8-4.8-4.8-12.5,0-17.2l127.7-127.7c4.8-4.8,12.5-4.8,17.2,0
		c4.8,4.8,4.8,12.5,0,17.2L215,322.2C212.6,324.6,209.5,325.7,206.3,325.7z"/>
</g>
</svg>
