<?xml version="1.0" encoding="utf-8"?>
<!-- Generator: Adobe Illustrator 18.0.0, SVG Export Plug-In . SVG Version: 6.00 Build 0)  -->
<!DOCTYPE svg PUBLIC "-//W3C//DTD SVG 1.1//EN" "http://www.w3.org/Graphics/SVG/1.1/DTD/svg11.dtd">
<svg version="1.1" id="Capa_1" xmlns="http://www.w3.org/2000/svg" xmlns:xlink="http://www.w3.org/1999/xlink" x="0px" y="0px"
	 viewBox="0 0 540.8 500" enable-background="new 0 0 540.8 500" xml:space="preserve">
<g>
	<path d="M422.2,98.2c-40.6-40.6-94.5-63-151.8-63s-111.3,22.4-151.8,63c-78.3,78.3-83.9,203.3-14.2,288
		c-9.6,19.7-21,32.8-33.8,39.1c-7.8,3.9-12.2,12.3-11,21c1.3,8.7,8,15.5,16.7,16.8c4.8,0.7,9.9,1.2,15.2,1.2
		c26.4,0,54.1-9.1,77.2-25c31.1,16.7,66.1,25.5,101.7,25.5c57.4,0,111.3-22.3,151.8-62.9c40.6-40.6,62.9-94.5,62.9-151.8
		C485.1,192.8,462.8,138.7,422.2,98.2L422.2,98.2z M405,384.7c-36,36-83.8,55.8-134.7,55.8c-34,0-67.4-9.1-96.4-26.2
		c-1.9-1.1-4-1.7-6.1-1.7c-2.6,0-5.3,0.9-7.5,2.5c-27.5,21.3-55.2,24.5-67.4,24.7c14.5-10.8,26.6-27.5,36.8-50.8
		c1.9-4.3,1.1-9.4-2.1-13c-66.6-75.2-63.1-189.8,8-260.9c36-36,83.8-55.8,134.7-55.8c50.8,0,98.7,19.8,134.7,55.8
		C479.3,189.6,479.3,310.5,405,384.7L405,384.7z M405,384.7"/>
	<path d="M360.3,179.1H180.4c-6.7,0-12.1,5.4-12.1,12.1c0,6.7,5.4,12.1,12.1,12.1h179.9c6.7,0,12.1-5.4,12.1-12.1
		C372.5,184.5,367,179.1,360.3,179.1L360.3,179.1z M360.3,179.1"/>
	<path d="M360.3,237.9H180.4c-6.7,0-12.1,5.4-12.1,12.1s5.4,12.1,12.1,12.1h179.9c6.7,0,12.1-5.4,12.1-12.1S367,237.9,360.3,237.9
		L360.3,237.9z M360.3,237.9"/>
	<path d="M360.3,296.6H180.4c-6.7,0-12.1,5.4-12.1,12.1c0,6.7,5.4,12.1,12.1,12.1h179.9c6.7,0,12.1-5.4,12.1-12.1
		C372.5,302,367,296.6,360.3,296.6L360.3,296.6z M360.3,296.6"/>
</g>
</svg>
