<?xml version="1.0" encoding="utf-8"?>
<!-- Generator: Adobe Illustrator 18.0.0, SVG Export Plug-In . SVG Version: 6.00 Build 0)  -->
<!DOCTYPE svg PUBLIC "-//W3C//DTD SVG 1.1//EN" "http://www.w3.org/Graphics/SVG/1.1/DTD/svg11.dtd">
<svg version="1.1" id="Capa_1" xmlns="http://www.w3.org/2000/svg" xmlns:xlink="http://www.w3.org/1999/xlink" x="0px" y="0px"
	 viewBox="0 0 500 500" enable-background="new 0 0 500 500" xml:space="preserve">
<g>
	<g>
		<g>
			<path d="M254.9,460.4h-9.9c-116,0-210.4-94.4-210.4-210.4S129.1,39.6,245.1,39.6h9.9c116,0,210.4,94.4,210.4,210.4
				S370.9,460.4,254.9,460.4z M245.1,64C142.5,64,59,147.4,59,250s83.4,186,186,186h9.9c102.6,0,186-83.4,186-186s-83.4-186-186-186
				H245.1z"/>
		</g>
	</g>
	<path d="M331,261.9h-93.2l0.3-160c0-6.7,5.5-12.2,12.2-12.2c0,0,0,0,0,0c6.7,0,12.2,5.5,12.2,12.2l-0.3,135.6H331
		c6.7,0,12.2,5.5,12.2,12.2C343.2,256.4,337.8,261.9,331,261.9z"/>
</g>
</svg>
