<?xml version="1.0" encoding="utf-8"?>
<!-- Generator: Adobe Illustrator 18.0.0, SVG Export Plug-In . SVG Version: 6.00 Build 0)  -->
<!DOCTYPE svg PUBLIC "-//W3C//DTD SVG 1.1//EN" "http://www.w3.org/Graphics/SVG/1.1/DTD/svg11.dtd">
<svg version="1.1" id="Capa_1" xmlns="http://www.w3.org/2000/svg" xmlns:xlink="http://www.w3.org/1999/xlink" x="0px" y="0px"
	 viewBox="0 0 540.8 500" enable-background="new 0 0 540.8 500" xml:space="preserve">
<g>
	<path d="M456.5,245.4c-6.3,0-11.3,5-11.3,11.3v102.9c0,28-22.8,50.7-50.7,50.7H146.3c-28,0-50.7-22.8-50.7-50.7V255.1
		c0-6.3-5-11.3-11.3-11.3s-11.3,5-11.3,11.3v104.6c0,40.5,32.9,73.3,73.3,73.3h248.2c40.5,0,73.3-32.9,73.3-73.3V256.7
		C467.8,250.5,462.8,245.4,456.5,245.4L456.5,245.4z M456.5,245.4"/>
	<path d="M262.4,343.2c2.2,2.2,5.1,3.4,8,3.4c2.8,0,5.8-1.1,8-3.4l71.9-71.9c4.4-4.4,4.4-11.6,0-16c-4.4-4.4-11.6-4.4-16,0
		l-52.5,52.6V78.3c0-6.3-5-11.3-11.3-11.3s-11.3,5-11.3,11.3v229.5l-52.6-52.6c-4.4-4.4-11.6-4.4-16,0c-4.4,4.4-4.4,11.6,0,16
		L262.4,343.2z M262.4,343.2"/>
</g>
</svg>
