<?xml version="1.0" encoding="utf-8"?>
<!-- Generator: Adobe Illustrator 18.0.0, SVG Export Plug-In . SVG Version: 6.00 Build 0)  -->
<!DOCTYPE svg PUBLIC "-//W3C//DTD SVG 1.1//EN" "http://www.w3.org/Graphics/SVG/1.1/DTD/svg11.dtd">
<svg version="1.1" id="Capa_1" xmlns="http://www.w3.org/2000/svg" xmlns:xlink="http://www.w3.org/1999/xlink" x="0px" y="0px"
	 viewBox="0 0 540.8 500" enable-background="new 0 0 540.8 500" xml:space="preserve">
<g>
	<path d="M436.1,84.3c-32.8-32.9-86.1-32.9-118.8,0L99.4,302.1c-1.7,1.7-2.8,3.9-3.1,6.2L80.2,427.9c-0.5,3.4,0.7,6.8,3.1,9.2
		c2,2,4.9,3.2,7.7,3.2c0.5,0,1,0,1.5-0.1l72-9.7c6-0.8,10.2-6.3,9.4-12.3c-0.8-6-6.3-10.2-12.3-9.4l-57.8,7.8l11.3-83.4l87.8,87.8
		c2,2,4.9,3.2,7.7,3.2c2.8,0,5.7-1.1,7.7-3.2l217.9-217.8c15.9-15.9,24.7-37,24.7-59.5C460.7,121.2,452,100.1,436.1,84.3L436.1,84.3
		z M321.5,111.1l36.6,36.6L159.2,346.5l-36.6-36.6L321.5,111.1z M210.6,397.7L174.8,362l198.8-198.8l35.8,35.8L210.6,397.7z
		 M424.6,183.3l-87.5-87.5c11.1-9.2,25-14.2,39.6-14.2c16.6,0,32.2,6.5,44,18.2c11.8,11.7,18.2,27.3,18.2,44
		C438.8,158.4,433.8,172.2,424.6,183.3L424.6,183.3z M424.6,183.3"/>
</g>
</svg>
