<?xml version="1.0" encoding="utf-8"?>
<!-- Generator: Adobe Illustrator 18.0.0, SVG Export Plug-In . SVG Version: 6.00 Build 0)  -->
<!DOCTYPE svg PUBLIC "-//W3C//DTD SVG 1.1//EN" "http://www.w3.org/Graphics/SVG/1.1/DTD/svg11.dtd">
<svg version="1.1" id="Capa_1" xmlns="http://www.w3.org/2000/svg" xmlns:xlink="http://www.w3.org/1999/xlink" x="0px" y="0px"
	 viewBox="0 0 540.8 500" enable-background="new 0 0 540.8 500" xml:space="preserve">
<path d="M320.2,410.1h-99.6c-15.5,0-28.1-12.6-28.1-28.1V247.9c0-1-0.4-1.9-1.1-2.6L84.2,137.8c-8-8.1-10.4-20.1-6.1-30.6
	s14.6-17.3,26-17.3h332.6c11.4,0,21.6,6.8,26,17.3c4.4,10.5,2,22.6-6.1,30.6L349.4,244.9c-0.7,0.7-1.1,1.6-1.1,2.6V382
	C348.3,397.5,335.7,410.1,320.2,410.1z M104.1,114.2c-2.1,0-3,1.3-3.5,2.3s-0.7,2.6,0.8,4.1l107.2,107.5c5.3,5.3,8.2,12.4,8.2,19.8
	V382c0,2.1,1.7,3.7,3.7,3.7h99.6c2.1,0,3.7-1.7,3.7-3.7V247.6c0-7.5,2.9-14.6,8.2-19.9l107.1-107.1c1.5-1.5,1.2-3,0.8-4.1
	c-0.4-1.1-1.4-2.3-3.5-2.3H104.1z"/>
</svg>
