<?xml version="1.0" encoding="utf-8"?>
<!-- Generator: Adobe Illustrator 18.0.0, SVG Export Plug-In . SVG Version: 6.00 Build 0)  -->
<!DOCTYPE svg PUBLIC "-//W3C//DTD SVG 1.1//EN" "http://www.w3.org/Graphics/SVG/1.1/DTD/svg11.dtd">
<svg version="1.1" id="Capa_1" xmlns="http://www.w3.org/2000/svg" xmlns:xlink="http://www.w3.org/1999/xlink" x="0px" y="0px"
	 viewBox="0 0 540.8 500" enable-background="new 0 0 540.8 500" xml:space="preserve">
<g>
	<path d="M411.5,122.9h-11.1V98.2c0-35.1-28.6-63.7-63.7-63.7H203.1c-35.1,0-63.7,28.6-63.7,63.7v24.7h-10.1
		c-35.1,0-63.7,28.6-63.7,63.7v102.7c0,35.1,28.6,63.7,63.7,63.7h10v80.7c0,17.5,14.3,31.8,31.8,31.8h197.5
		c17.5,0,31.8-14.3,31.8-31.8v-80.7h11.2c35.1,0,63.7-28.6,63.7-63.7V186.5C475.2,151.4,446.6,122.9,411.5,122.9L411.5,122.9z
		 M163.4,98.2c0-21.8,17.8-39.6,39.6-39.6h133.6c21.8,0,39.6,17.8,39.6,39.6v24.7H163.4V98.2z M376.2,433.8c0,4.2-3.5,7.7-7.7,7.7
		H171.1c-4.2,0-7.7-3.5-7.7-7.7V300.7h212.8V433.8z M451.1,289.3c0,21.8-17.8,39.6-39.6,39.6h-11.1v-28.2h15.9
		c6.7,0,12.1-5.4,12.1-12.1s-5.4-12.1-12.1-12.1H121.6c-6.7,0-12.1,5.4-12.1,12.1s5.4,12.1,12.1,12.1h17.8v28.2h-10.1
		c-21.8,0-39.6-17.8-39.6-39.6V186.6c0-21.8,17.8-39.6,39.6-39.6h282.2c21.8,0,39.6,17.8,39.6,39.6V289.3z M451.1,289.3"/>
	<path d="M192.6,360h153.5c6.7,0,12.1-5.4,12.1-12.1c0-6.7-5.4-12.1-12.1-12.1H192.6c-6.7,0-12.1,5.4-12.1,12.1
		C180.5,354.6,186,360,192.6,360L192.6,360z M192.6,360"/>
	<path d="M347.1,385.2H193.5c-6.7,0-12.1,5.4-12.1,12.1c0,6.7,5.4,12.1,12.1,12.1H347c6.7,0,12.1-5.4,12.1-12.1
		C359.1,390.5,353.7,385.2,347.1,385.2L347.1,385.2z M347.1,385.2"/>
	<path d="M411.2,170.2h-24.5c-6.7,0-12.1,5.4-12.1,12.1s5.4,12.1,12.1,12.1h24.5c6.7,0,12.1-5.4,12.1-12.1S417.9,170.2,411.2,170.2
		L411.2,170.2z M411.2,170.2"/>
</g>
</svg>
