<?xml version="1.0" encoding="utf-8"?>
<!-- Generator: Adobe Illustrator 21.0.0, SVG Export Plug-In . SVG Version: 6.00 Build 0)  -->
<svg version="1.1" id="Capa_1" xmlns="http://www.w3.org/2000/svg" xmlns:xlink="http://www.w3.org/1999/xlink" x="0px" y="0px"
	 viewBox="0 0 573.5 130.7" style="enable-background:new 0 0 573.5 130.7;" xml:space="preserve">
<style type="text/css">
	.st0{fill:#CC2229;}
</style>
<g id="XMLID_4_">
	<path id="XMLID_44_" class="st0" d="M150.7,61.7c-1.8,20.6-3.6,41.1-5.5,61.9c-13.9,0-27.9,0-42.1,0c0.4-2.9,0.7-5.9,1.1-8.8
		c1.8-14.1,3.6-28.1,5.5-42.2c2.1-16,4.2-32.1,6.3-48.1c0.7-5.3,1.4-10.5,2-15.8c0.2-1.5,0.6-2.1,2.3-2.1c14.8,0.1,29.5,0.1,44.3,0
		c1.4,0,2.1,0.3,2.5,1.7c3.3,11,6.6,21.9,9.9,32.9c1.9,6.3,3.8,12.6,5.7,19c0.1,0.5,0.4,0.9,0.9,1.9c5.6-18.8,11-37.1,16.3-55.3
		c16.1,0,31.9,0,47.9,0c5.3,39,10.5,77.9,15.8,117c-13.8,0-27.5,0-41.5,0c-1.8-20.7-3.5-41.5-5.3-62.2c-0.2,0-0.4,0-0.6-0.1
		c-1.7,5.1-3.4,10.3-5.1,15.4c-5,15.1-10,30.2-14.9,45.3c-0.4,1.4-1.2,1.7-2.5,1.7c-7-0.1-14.1-0.1-21.1,0c-1.4,0-2-0.3-2.4-1.8
		c-6-19.3-12-38.6-18.1-57.8c-0.3-0.9-0.6-1.7-1-2.6C151,61.7,150.8,61.7,150.7,61.7z"/>
	<path id="XMLID_43_" class="st0" d="M271.5,6.6c14.5,0,28.5,0,42.9,0c0,1,0,1.9,0,2.8c0,21.5,0,42.9,0,64.4c0,2.6,0.4,5.2,1,7.7
		c1.5,5.8,6.1,8,11.1,7.5c5.1-0.5,8.8-4.6,9.2-10c0.3-4.7,0.5-9.4,0.5-14.1c0.1-18.5,0-36.9,0-55.4c0-0.9,0-1.8,0-2.9
		c14.3,0,28.4,0,42.7,0c0,0.7,0.1,1.5,0.1,2.4c0,23,0.1,46,0,69.1c0,8.6-1,17.1-5.3,24.8c-5.4,9.8-13.8,16.2-24.3,19.9
		c-10.7,3.8-21.7,4.3-32.8,3.1c-8.3-0.9-16.3-3-23.7-7c-12-6.6-18.9-16.7-20.7-30.3c-0.6-4.6-0.8-9.4-0.9-14
		c-0.1-21.7,0-43.4,0-65.1C271.5,8.7,271.5,7.7,271.5,6.6z"/>
	<path id="XMLID_42_" class="st0" d="M13.1,81.2c2.7,1.8,5.2,3.5,7.7,5.1c6.5,4.1,13.3,7.6,21.3,7.4c2.5,0,5-0.8,7.3-1.7
		c2.8-1.1,4-3.6,3.7-6.1c-0.4-2.7-2.3-4-4.6-4.6c-4.3-1.1-8.7-1.8-13.1-2.8c-6.3-1.3-12.4-3.1-17.7-6.9c-8.2-5.8-12.2-14-12.7-24
		c-1-22,12.7-36.6,31.5-42c8.4-2.4,16.9-2.8,25.4-1.8c11,1.3,21.3,5.2,31.2,10.1c0.5,0.2,1,1.5,0.8,2.1c-3.6,9.1-7.4,18.2-11.1,27.3
		c-0.6,1.6-1.3,1-2.3,0.6c-4.7-2.3-9.3-4.8-14.1-6.7c-4.2-1.6-8.8-2.1-13.4-1c-3,0.7-5.2,2.8-5.3,5.3c-0.1,2.6,1.5,4.5,4.8,5.3
		c6.4,1.6,12.9,2.9,19.2,4.7c9.7,2.9,17.8,8.1,22.3,17.7c3.2,6.9,3.6,14.1,2.5,21.5c-2.4,17.1-18.5,31.5-34.7,34.4
		c-8.3,1.5-16.5,1.6-24.9,0.7c-12.7-1.4-24.3-5.8-35.5-11.6c-1.6-0.8-1.7-1.4-1-3C4.6,101.4,8.8,91.5,13.1,81.2z"/>
	<path id="XMLID_41_" class="st0" d="M527.4,128.4c-5.6,0.8-10.8,2.1-16,2.3c-34.3,1.4-63-22.4-68-56.4c-1-6.5-0.8-13.1,0.3-19.6
		c0.2-1.4,0.8-1.8,2.1-1.7c12.1,0,24.2,0,36.4,0c1.5,0,2.2,0.7,2.8,1.8c10.2,17.7,20.4,35.3,30.6,53
		C519.4,114.4,523.2,121.1,527.4,128.4z"/>
	<path id="XMLID_40_" class="st0" d="M444.5,50.1c6.4-22.8,20.3-38.7,42.7-46.6c23.9-8.4,49-1,63.5,12.6c-4,6.9-8,13.8-12,20.8
		c-2.3,4-4.6,8-7,12c-0.4,0.7-1.5,1.5-2.2,1.5c-28,0.1-56.1,0-84.1,0C445.3,50.4,445.1,50.3,444.5,50.1z"/>
	<path id="XMLID_39_" class="st0" d="M529.6,126.9c-2.6-4.5-5.2-9-7.8-13.5c-3.7-6.5-7.4-13-11.2-19.4c-0.6-1.1-0.7-1.9,0-3.1
		c13.2-22.8,26.4-45.7,39.5-68.6c0.8-1.5,1.8-2.9,2.9-4.7c15.8,15.8,22.8,34.5,20,56.5C569.7,98.7,550.6,121.8,529.6,126.9z"/>
</g>
</svg>
