<?xml version="1.0" encoding="utf-8"?>
<!-- Generator: Adobe Illustrator 18.0.0, SVG Export Plug-In . SVG Version: 6.00 Build 0)  -->
<!DOCTYPE svg PUBLIC "-//W3C//DTD SVG 1.1//EN" "http://www.w3.org/Graphics/SVG/1.1/DTD/svg11.dtd">
<svg version="1.1" id="Capa_1" xmlns="http://www.w3.org/2000/svg" xmlns:xlink="http://www.w3.org/1999/xlink" x="0px" y="0px"
	 viewBox="0 0 540.8 500" enable-background="new 0 0 540.8 500" xml:space="preserve">
<g>
	<path d="M270.4,370.7c-6.7,0-12.2-5.5-12.2-12.2V141.4c0-6.7,5.5-12.2,12.2-12.2c6.7,0,12.2,5.5,12.2,12.2v217.1
		C282.6,365.3,277.1,370.7,270.4,370.7z"/>
	<path d="M270.4,370.7c-6.7,0-12.2-5.5-12.2-12.2V141.4c0-6.7,5.5-12.2,12.2-12.2c6.7,0,12.2,5.5,12.2,12.2v217.1
		C282.6,365.3,277.1,370.7,270.4,370.7z"/>
	<path d="M379,262.2H161.8c-6.7,0-12.2-5.5-12.2-12.2c0-6.7,5.5-12.2,12.2-12.2H379c6.7,0,12.2,5.5,12.2,12.2
		C391.1,256.7,385.7,262.2,379,262.2z"/>
</g>
</svg>
