<?xml version="1.0" encoding="utf-8"?>
<!-- Generator: Adobe Illustrator 18.0.0, SVG Export Plug-In . SVG Version: 6.00 Build 0)  -->
<!DOCTYPE svg PUBLIC "-//W3C//DTD SVG 1.1//EN" "http://www.w3.org/Graphics/SVG/1.1/DTD/svg11.dtd">
<svg version="1.1" id="Capa_1" xmlns="http://www.w3.org/2000/svg" xmlns:xlink="http://www.w3.org/1999/xlink" x="0px" y="0px"
	 viewBox="0 0 500 500" enable-background="new 0 0 500 500" xml:space="preserve">
<g>
	<g>
		<g>
			<path d="M254.9,460.4h-9.9c-116,0-210.4-94.4-210.4-210.4c0-116,94.4-210.4,210.4-210.4h9.9c116,0,210.4,94.4,210.4,210.4
				S370.9,460.4,254.9,460.4z M245.1,64C142.5,64,59,147.4,59,250s83.4,186,186,186h9.9c102.6,0,186-83.4,186-186
				c0-102.6-83.4-186-186-186H245.1z"/>
		</g>
	</g>
	<path d="M220.3,359.3c-3.1,0-6.2-1.2-8.6-3.6c-4.7-4.8-4.7-12.5,0-17.2l88.1-87.7l-89-89.4c-4.7-4.8-4.7-12.5,0-17.2
		c4.8-4.7,12.5-4.7,17.2,0l106.2,106.7L228.9,355.8C226.6,358.2,223.4,359.3,220.3,359.3z"/>
</g>
</svg>
