<?xml version="1.0" encoding="utf-8"?>
<!-- Generator: Adobe Illustrator 18.0.0, SVG Export Plug-In . SVG Version: 6.00 Build 0)  -->
<!DOCTYPE svg PUBLIC "-//W3C//DTD SVG 1.1//EN" "http://www.w3.org/Graphics/SVG/1.1/DTD/svg11.dtd">
<svg version="1.1" id="Capa_1" xmlns="http://www.w3.org/2000/svg" xmlns:xlink="http://www.w3.org/1999/xlink" x="0px" y="0px"
	 viewBox="0 0 500 500" enable-background="new 0 0 500 500" xml:space="preserve">
<path d="M459.4,439.6L357,337.2c27.5-31.6,44.1-72.7,44.1-117.7c0-99.1-80.6-179.6-179.6-179.6C122.5,39.9,42,120.5,42,219.5
	s80.6,179.6,179.6,179.6c45,0,86.2-16.6,117.7-44.1l102.3,102.3c2.4,2.4,5.7,3.7,8.9,3.7c3.2,0,6.4-1.2,8.9-3.7
	C464.2,452.5,464.2,444.4,459.4,439.6L459.4,439.6z M67.1,219.5c0-85.2,69.3-154.3,154.3-154.3c85.2,0,154.3,69.3,154.3,154.3
	s-69.2,154.4-154.3,154.4C136.4,373.9,67.1,304.7,67.1,219.5L67.1,219.5z M67.1,219.5"/>
</svg>
