<?xml version="1.0" encoding="utf-8"?>
<!-- Generator: Adobe Illustrator 18.0.0, SVG Export Plug-In . SVG Version: 6.00 Build 0)  -->
<!DOCTYPE svg PUBLIC "-//W3C//DTD SVG 1.1//EN" "http://www.w3.org/Graphics/SVG/1.1/DTD/svg11.dtd">
<svg version="1.1" id="Capa_1" xmlns="http://www.w3.org/2000/svg" xmlns:xlink="http://www.w3.org/1999/xlink" x="0px" y="0px"
	 viewBox="0 0 540.8 500" enable-background="new 0 0 540.8 500" xml:space="preserve">
<g>
	<g>
		<g>
			<path d="M462.7,109.7l-0.4-0.4c-4-4-10.6-4-14.6,0l-49.1,49.1L362,121.8L411,72.7c4-4,4-10.6,0-14.7l-0.4-0.4
				c-24-24-63.1-24-87.2,0L300.2,81c-19,19-22.1,48.2-8.8,70.4L171.8,271c-22.1-13.3-51.4-10.1-70.4,8.8l-23.3,23.3
				c-24,24-24,63.1,0,87.2l0.4,0.4c4,4,10.6,4,14.6,0l49.1-49.1l36.6,36.6l-49.1,49.1c-4,4-4,10.6,0,14.7l0.4,0.4
				c12,12,27.8,18,43.6,18s31.6-6,43.6-18l23.3-23.3c19-19,21.9-48.7,8.1-71.1l119.5-119.5c22.5,13.8,52.1,10.9,71.1-8.1l23.3-23.3
				C486.7,172.9,486.7,133.7,462.7,109.7z M448,182.2l-23.3,23.3c-13.7,13.7-36,14.3-50.7,1.4c-4.1-3.6-10.3-3.4-14.1,0.5l-132,132
				c-3.9,3.9-4.1,10-0.5,14.1c12.9,14.8,12.3,37.1-1.4,50.7l-23.3,23.3c-13.6,13.6-34.3,15.6-50.1,6.1l48.2-48.2
				c1.9-1.9,3-4.6,3-7.3c0-2.7-1.1-5.4-3-7.3l-51.3-51.3c-1.9-1.9-4.6-3-7.3-3c-2.7,0-5.4,1.1-7.3,3l-48.2,48.2
				c-9.5-15.7-7.4-36.5,6.1-50.1l23.3-23.3c13.4-13.4,35.9-14.4,50-2.1c4.1,3.6,10.3,3.3,14.1-0.5l132-132c3.8-3.8,4.1-10,0.5-14.1
				c-12.3-14.1-11.3-36.6,2.1-50l23.3-23.3c13.6-13.6,34.3-15.6,50.1-6.1L340,114.5c-1.9,1.9-3,4.6-3,7.3s1.1,5.4,3,7.3l51.3,51.3
				c1.9,1.9,4.6,3,7.3,3c2.7,0,5.4-1.1,7.3-3l48.2-48.2C463.6,147.9,461.6,168.7,448,182.2z"/>
		</g>
	</g>
	<g>
		<g>
			<path d="M335.6,184.8c-4-4-10.6-4-14.7,0L205.2,300.5c-4,4-4,10.6,0,14.7c2,2,4.7,3,7.3,3c2.7,0,5.3-1,7.3-3l115.7-115.7
				C339.6,195.4,339.6,188.8,335.6,184.8z"/>
		</g>
	</g>
</g>
</svg>
