<?xml version="1.0" encoding="utf-8"?>
<!-- Generator: Adobe Illustrator 18.0.0, SVG Export Plug-In . SVG Version: 6.00 Build 0)  -->
<!DOCTYPE svg PUBLIC "-//W3C//DTD SVG 1.1//EN" "http://www.w3.org/Graphics/SVG/1.1/DTD/svg11.dtd">
<svg version="1.1" id="Capa_1" xmlns="http://www.w3.org/2000/svg" xmlns:xlink="http://www.w3.org/1999/xlink" x="0px" y="0px"
	 viewBox="0 0 540.8 500" enable-background="new 0 0 540.8 500" xml:space="preserve">
<g>
	<g>
		<path d="M201.1,356.7l-64.6-64.6c-4.8-4.8-4.8-12.5,0-17.2c4.8-4.8,12.5-4.8,17.2,0l45.8,45.8l142.8-169.8
			c4.3-5.1,12-5.8,17.2-1.5c5.1,4.3,5.8,12,1.5,17.2L201.1,356.7z"/>
		<path d="M269.8,360.6l-45.7-45.7c-4.8-4.8-4.8-12.5,0-17.2c4.8-4.8,12.5-4.8,17.2,0l26.6,26.6l118.2-145c4.3-5.2,11.9-6,17.1-1.7
			c5.2,4.3,6,11.9,1.7,17.1L269.8,360.6z"/>
		<path d="M206.2,286.5c-3.1,0-6.2-1.2-8.6-3.6l-7.2-7.2c-4.8-4.8-4.8-12.5,0-17.2c4.8-4.8,12.5-4.8,17.2,0l7.2,7.2
			c4.8,4.8,4.8,12.5,0,17.2C212.5,285.4,209.4,286.5,206.2,286.5z"/>
	</g>
	<path d="M270.4,465c-118.5,0-215-96.4-215-215c0-118.5,96.4-215,215-215s215,96.4,215,215C485.4,368.5,388.9,465,270.4,465z
		 M270.4,61c-104.2,0-189,84.8-189,189s84.8,189,189,189c104.2,0,189-84.8,189-189S374.6,61,270.4,61z"/>
</g>
</svg>
