<?xml version="1.0" encoding="utf-8"?>
<!-- Generator: Adobe Illustrator 18.0.0, SVG Export Plug-In . SVG Version: 6.00 Build 0)  -->
<!DOCTYPE svg PUBLIC "-//W3C//DTD SVG 1.1//EN" "http://www.w3.org/Graphics/SVG/1.1/DTD/svg11.dtd">
<svg version="1.1" id="Capa_1" xmlns="http://www.w3.org/2000/svg" xmlns:xlink="http://www.w3.org/1999/xlink" x="0px" y="0px"
	 viewBox="0 0 540.8 500" enable-background="new 0 0 540.8 500" xml:space="preserve">
<g>
	<path d="M268.9,266.2h2.8c25.3-0.4,45.7-9.3,60.8-26.3c33.2-37.5,27.7-101.6,27.1-107.8c-2.2-46-23.9-68-41.8-78.3
		c-13.4-7.7-29-11.8-46.4-12.2h-1.5c-9.6,0-28.4,1.6-46.4,11.8c-18.1,10.3-40.2,32.3-42.4,78.6c-0.6,6.1-6.1,70.3,27.1,107.8
		C223.1,256.9,243.6,265.7,268.9,266.2L268.9,266.2z M204.1,134.2c0-0.3,0.1-0.5,0.1-0.7C207,71.7,250.9,65,269.7,65h1
		c23.3,0.5,62.9,10,65.6,68.5c0,0.3,0,0.5,0.1,0.7c0.1,0.6,6.1,59.3-21.3,90.2c-10.9,12.3-25.4,18.3-44.4,18.5h-0.9
		c-19-0.2-33.6-6.2-44.4-18.5C198.1,193.7,204,134.8,204.1,134.2L204.1,134.2z M204.1,134.2"/>
	<path d="M447.6,372.7v-0.3c0-0.7-0.1-1.4-0.1-2.2c-0.5-17.1-1.6-57-39.1-69.8c-0.3-0.1-0.6-0.2-0.9-0.3
		c-38.9-9.9-71.3-32.4-71.6-32.6c-5.3-3.7-12.5-2.4-16.2,2.8c-3.7,5.3-2.4,12.5,2.8,16.2c1.5,1,35.8,24.9,78.8,36
		c20.1,7.2,22.3,28.6,22.9,48.3c0,0.8,0,1.5,0.1,2.2c0.1,7.8-0.4,19.8-1.8,26.7c-14,7.9-68.8,35.4-152.1,35.4
		c-83,0-138.1-27.5-152.2-35.5c-1.4-6.9-2-18.9-1.8-26.7c0-0.7,0.1-1.4,0.1-2.2c0.6-19.7,2.8-41.2,23-48.3c43-11,77.3-35,78.8-36
		c5.3-3.7,6.6-11,2.8-16.2s-11-6.6-16.2-2.8c-0.3,0.3-32.5,22.7-71.6,32.6c-0.3,0.1-0.6,0.2-0.9,0.3c-37.4,12.9-38.6,52.8-39.1,69.8
		c0,0.8,0,1.5-0.1,2.2v0.3c-0.1,4.5-0.2,27.5,4.4,39.1c0.9,2.2,2.4,4.1,4.5,5.4c2.6,1.7,64.6,41.2,168.4,41.2s165.8-39.6,168.4-41.2
		c2-1.3,3.6-3.2,4.5-5.4C447.7,400.2,447.7,377.1,447.6,372.7L447.6,372.7z M447.6,372.7"/>
</g>
</svg>
